<?xml version="1.0" standalone="no"?>
<!DOCTYPE svg PUBLIC "-//W3C//DTD SVG 20010904//EN"
 "http://www.w3.org/TR/2001/REC-SVG-20010904/DTD/svg10.dtd">
<svg version="1.0" xmlns="http://www.w3.org/2000/svg"
 width="310.000000pt" height="310.000000pt" viewBox="0 0 310.000000 310.000000"
 preserveAspectRatio="xMidYMid meet">
<metadata>
Created by potrace 1.14, written by Peter Selinger 2001-2017
</metadata>
<g transform="translate(0.000000,310.000000) scale(0.100000,-0.100000)"
fill="#000000" stroke="none">
<path d="M2390 3090 c0 -4 -11 -7 -25 -6 -13 2 -22 0 -20 -5 3 -4 -11 -13 -30
-19 -19 -6 -39 -19 -45 -28 -5 -9 -10 -13 -10 -8 0 14 -90 -86 -90 -101 0 -7
-7 -16 -15 -19 -8 -4 -12 -10 -9 -15 2 -5 0 -17 -5 -28 -10 -18 -19 -61 -26
-118 -1 -12 2 -20 6 -17 5 3 5 -6 -1 -20 -6 -18 -6 -26 1 -26 6 0 9 -8 7 -17
-2 -10 3 -24 12 -31 13 -11 13 -12 0 -6 -12 7 -13 5 -3 -8 7 -8 11 -17 8 -20
-3 -3 1 -11 10 -18 8 -7 15 -19 15 -26 0 -8 5 -14 10 -14 6 0 10 -7 10 -15 0
-8 5 -15 10 -15 15 0 12 -19 -5 -37 -8 -8 -12 -19 -9 -25 4 -6 2 -8 -4 -4 -6
3 -13 -3 -17 -14 -3 -11 -11 -20 -16 -20 -6 0 -8 -4 -5 -9 3 -5 -1 -11 -9 -15
-8 -3 -15 -12 -15 -21 0 -8 -4 -15 -9 -15 -5 0 -12 -8 -16 -19 -3 -10 -17 -31
-31 -46 -13 -14 -26 -32 -27 -38 -1 -6 -11 -21 -22 -34 -38 -43 -44 -51 -38
-57 4 -3 1 -6 -5 -6 -6 0 -14 -9 -17 -20 -4 -11 -11 -18 -16 -15 -5 3 -6 -2
-2 -11 4 -12 3 -15 -5 -10 -7 4 -12 3 -12 -3 0 -15 -62 -101 -73 -101 -4 0 -6
-4 -3 -9 8 -12 -24 -37 -32 -25 -4 5 -18 11 -32 13 -14 1 -28 8 -31 13 -4 6
-11 8 -17 4 -6 -3 -13 -2 -17 3 -3 5 -14 8 -25 6 -11 -2 -20 0 -20 4 0 18
-191 -1 -217 -21 -7 -5 -17 -7 -23 -3 -5 3 -10 1 -10 -4 0 -6 -4 -10 -8 -8
-10 3 -122 -65 -122 -75 0 -4 -9 -12 -19 -17 -15 -9 -26 -4 -57 24 -21 19 -42
35 -47 35 -5 0 -20 12 -33 28 -13 15 -24 24 -24 20 0 -8 -10 -1 -71 55 -19 17
-39 33 -43 33 -4 1 -19 11 -32 23 -13 12 -29 21 -35 21 -5 0 -7 5 -4 10 3 6
-1 10 -9 10 -9 0 -16 5 -16 10 0 6 -5 10 -10 10 -6 0 -21 10 -33 21 -12 12
-40 33 -62 48 -41 26 -48 47 -30 88 12 27 14 95 3 117 -7 13 -7 16 1 12 6 -4
11 -2 11 3 0 6 -5 11 -11 11 -6 0 -9 9 -6 20 3 13 0 20 -9 20 -8 0 -13 3 -13
8 1 4 1 12 0 19 -1 13 -91 107 -91 96 0 -5 -6 -1 -13 7 -13 16 -23 20 -69 28
-15 2 -26 7 -24 11 3 4 -21 5 -52 3 -86 -5 -92 -6 -92 -15 0 -4 -4 -6 -9 -3
-5 3 -25 -5 -44 -18 -19 -13 -38 -22 -41 -18 -3 3 -6 0 -6 -6 0 -6 -13 -25
-29 -41 -16 -17 -33 -40 -37 -53 -3 -13 -10 -25 -15 -28 -4 -3 -9 -17 -11 -30
-2 -14 -7 -30 -10 -36 -4 -6 -4 -14 -1 -18 12 -12 12 -36 0 -36 -8 0 -8 -3 -2
-8 11 -8 14 -19 17 -57 1 -14 6 -25 10 -25 4 0 8 -7 8 -16 0 -8 7 -22 15 -31
8 -8 12 -20 8 -26 -3 -7 -3 -9 1 -5 5 4 20 -5 34 -20 69 -70 160 -97 260 -78
19 4 39 8 45 9 7 1 16 7 22 14 11 12 27 16 60 14 17 -1 18 -3 5 -11 -13 -8
-13 -10 1 -10 9 0 35 -18 59 -40 45 -42 56 -49 44 -27 -5 8 -2 8 9 -2 9 -7 17
-20 17 -27 0 -8 4 -13 8 -12 8 3 61 -33 87 -59 7 -7 15 -9 19 -6 3 4 6 -2 6
-12 0 -10 3 -16 6 -12 4 3 12 1 19 -6 7 -7 25 -21 41 -32 15 -11 36 -28 46
-37 10 -10 21 -19 26 -20 4 -2 6 -6 4 -11 -1 -4 2 -6 7 -5 4 2 29 -14 55 -36
34 -28 44 -42 36 -51 -5 -6 -7 -15 -3 -18 3 -4 1 -7 -6 -7 -7 0 -10 -4 -6 -9
3 -5 1 -12 -4 -16 -6 -3 -8 -12 -5 -20 3 -8 2 -20 -2 -27 -11 -18 -12 -101 -1
-115 6 -8 6 -13 -1 -13 -12 0 0 -47 19 -84 6 -10 6 -16 1 -12 -5 3 -2 -10 6
-29 9 -19 20 -35 25 -35 4 0 5 -5 2 -11 -4 -5 3 -18 14 -28 12 -10 21 -23 21
-30 0 -6 5 -11 10 -11 6 0 10 -7 10 -16 0 -8 4 -13 9 -10 5 3 11 -4 14 -15 5
-20 -15 -59 -50 -97 -7 -7 -13 -16 -13 -20 0 -4 -13 -22 -29 -41 -17 -19 -28
-38 -25 -43 3 -4 1 -8 -4 -8 -5 0 -26 -25 -46 -55 -20 -30 -41 -55 -47 -55 -5
0 -8 -4 -5 -9 3 -5 -5 -20 -19 -35 -13 -15 -23 -28 -22 -30 1 -3 -8 -16 -20
-30 -24 -27 -43 -34 -43 -15 0 5 -4 8 -9 4 -5 -3 -12 -1 -16 5 -3 5 -17 10
-30 10 -13 0 -27 5 -30 10 -5 8 -11 8 -19 1 -7 -6 -16 -7 -20 -3 -11 11 -80 9
-88 -3 -5 -6 -8 -5 -8 4 0 10 -3 11 -14 2 -8 -6 -18 -11 -22 -10 -16 4 -64
-13 -64 -22 0 -5 -3 -8 -7 -8 -22 4 -44 -2 -39 -10 3 -5 -8 -14 -24 -21 -16
-7 -27 -16 -24 -21 3 -5 -2 -9 -10 -9 -9 0 -16 -4 -16 -8 0 -16 -37 -52 -45
-44 -5 4 -5 1 0 -7 4 -7 3 -16 -4 -21 -7 -4 -13 -13 -15 -21 -1 -8 -7 -24 -14
-35 -21 -39 -37 -182 -22 -209 6 -12 7 -19 9 -46 1 -12 5 -17 13 -13 6 4 8 3
5 -3 -7 -10 16 -65 37 -91 37 -44 86 -92 95 -92 6 0 11 -4 11 -10 0 -5 7 -10
15 -10 8 0 15 -4 15 -8 0 -4 10 -8 22 -9 11 -1 25 -8 29 -15 5 -7 9 -8 9 -3 0
6 5 3 10 -5 8 -13 10 -13 10 -1 0 11 3 12 11 4 6 -6 18 -9 25 -6 8 3 14 0 14
-7 0 -6 5 -8 13 -3 17 11 31 10 38 0 4 -6 13 -6 20 -1 8 5 28 9 45 10 17 1 38
5 45 10 8 5 19 9 24 10 20 4 104 51 100 56 -3 2 6 11 20 18 14 7 25 16 25 20
0 4 11 19 25 34 14 15 25 34 25 42 0 7 5 14 11 14 5 0 8 4 4 9 -3 5 0 15 7 23
16 16 20 35 23 128 2 47 -1 80 -8 89 -7 9 -8 12 -1 8 8 -4 8 4 0 28 -6 19 -14
35 -18 35 -5 0 -8 7 -8 16 0 9 -9 28 -19 42 -21 30 -22 42 -7 58 26 28 46 55
46 63 0 4 9 16 20 26 11 10 17 21 15 25 -3 4 2 11 11 14 9 4 15 9 12 12 -5 4
7 22 52 73 8 10 16 24 18 31 2 8 9 18 16 24 7 6 28 34 46 61 19 28 38 53 44
57 6 4 8 8 4 8 -5 0 0 8 10 19 15 16 21 17 50 5 45 -18 192 -36 192 -23 0 3
11 5 25 4 14 -2 27 1 30 5 3 5 14 7 25 5 11 -2 20 0 20 6 0 5 6 8 12 7 17 -4
38 -24 38 -37 0 -6 5 -11 10 -11 6 0 10 -7 10 -15 0 -8 5 -15 11 -15 5 0 7 -4
4 -10 -3 -5 1 -10 9 -10 9 0 16 -9 16 -20 0 -10 9 -24 20 -30 11 -6 20 -17 20
-25 0 -8 5 -15 11 -15 5 0 7 -5 4 -10 -3 -6 -1 -10 6 -10 7 0 9 -3 6 -6 -4 -4
3 -15 15 -25 11 -11 18 -19 14 -19 -8 0 45 -73 57 -78 4 -2 5 -8 1 -13 -3 -5
0 -9 7 -9 7 0 10 -3 7 -6 -4 -3 1 -14 10 -24 36 -40 43 -51 37 -60 -4 -6 -3
-9 2 -8 4 2 9 -1 10 -6 1 -5 5 -12 10 -15 4 -3 21 -25 36 -48 l28 -41 -24 -39
c-21 -34 -41 -79 -39 -93 0 -3 -4 -13 -9 -22 -7 -13 -6 -18 3 -18 8 0 9 -3 3
-8 -11 -7 -16 -92 -6 -92 3 0 7 -14 8 -32 1 -17 8 -35 15 -40 7 -4 9 -8 5 -8
-10 0 25 -60 35 -60 4 0 8 -7 8 -15 0 -8 3 -15 8 -15 4 0 22 -14 40 -30 49
-42 130 -70 208 -70 49 0 63 3 58 13 -5 9 -4 9 5 1 17 -15 105 29 150 76 19
19 39 34 44 32 4 -1 6 2 2 8 -3 5 -1 10 5 10 6 0 9 4 5 9 -3 5 1 15 8 23 15
15 31 63 30 90 0 10 4 18 9 18 5 0 4 9 -2 20 -6 11 -7 20 -2 20 5 0 9 7 9 15
0 8 -5 15 -11 15 -6 0 -4 5 4 10 8 5 10 10 4 10 -6 0 -11 14 -12 32 0 17 -4
34 -9 37 -4 3 -8 11 -8 16 0 15 -56 95 -67 95 -5 0 -7 4 -4 9 3 5 -6 12 -20
15 -15 4 -24 10 -21 13 8 8 -62 43 -90 45 -13 1 -23 6 -23 11 0 4 -18 6 -40 4
-22 -2 -40 0 -40 6 0 5 -6 5 -13 -2 -8 -6 -17 -8 -20 -4 -4 3 -14 0 -24 -8
-15 -12 -16 -12 -8 1 7 12 6 13 -6 3 -16 -13 -61 -14 -53 -1 3 4 0 8 -5 8 -6
0 -11 7 -11 15 0 8 -4 15 -10 15 -5 0 -10 7 -10 15 0 9 -7 18 -15 21 -8 4 -12
10 -9 15 3 5 1 9 -5 9 -5 0 -13 9 -16 20 -4 11 -11 17 -17 14 -7 -5 -9 -1 -5
9 3 10 3 17 -2 17 -5 0 -16 16 -25 35 -9 19 -20 35 -24 35 -6 0 -37 47 -44 68
-3 8 -25 36 -45 57 -7 8 -13 16 -13 20 0 3 -11 21 -25 39 -14 18 -24 35 -22
37 1 2 0 3 -2 2 -5 -3 -45 57 -54 81 -9 22 19 59 37 49 6 -3 8 -3 4 2 -4 4 -2
13 5 21 31 34 39 47 55 82 37 80 39 81 74 72 17 -6 46 -11 65 -12 18 -1 33 -5
33 -9 0 -4 6 -7 13 -6 44 1 77 -4 72 -13 -3 -5 0 -7 9 -4 21 8 59 -15 52 -32
-3 -8 -1 -14 5 -14 6 0 9 -7 6 -15 -4 -8 -2 -17 3 -20 6 -4 10 -13 10 -20 0
-8 8 -24 18 -36 46 -57 78 -89 89 -89 7 0 13 -4 13 -10 0 -5 9 -10 19 -10 11
0 22 -4 26 -9 6 -11 12 -12 107 -13 41 -1 73 4 82 12 9 7 22 10 31 7 8 -4 17
-1 21 5 4 7 3 8 -4 4 -7 -4 -12 -5 -12 -2 0 2 18 15 40 27 22 13 40 29 40 36
0 8 5 11 10 8 6 -3 10 1 10 9 0 9 5 16 10 16 6 0 10 7 10 15 0 8 4 15 9 15 5
0 8 8 7 18 -2 9 1 20 6 23 6 4 11 23 13 43 1 20 5 39 8 43 4 3 2 12 -4 20 -9
10 -8 13 2 13 12 0 12 2 1 9 -8 4 -13 11 -13 15 4 27 -27 106 -42 106 -6 0 -8
3 -4 6 8 8 -47 61 -73 69 -11 3 -18 11 -15 16 4 5 1 10 -4 10 -6 1 -14 2 -18
4 -28 7 -79 16 -87 15 -5 -1 -13 4 -17 12 -7 10 -9 10 -9 0 0 -9 -5 -10 -19
-2 -13 7 -22 7 -26 0 -3 -5 -15 -10 -25 -10 -25 0 -93 -31 -103 -48 -5 -7 -11
-10 -15 -8 -4 2 -23 -17 -42 -42 -29 -39 -41 -47 -67 -47 -18 0 -33 3 -33 8 0
4 -6 7 -12 6 -7 -1 -35 2 -63 6 -27 5 -53 8 -57 7 -5 -1 -8 2 -8 6 0 4 -16 9
-37 10 -45 3 -56 10 -49 28 3 8 2 14 -2 14 -4 0 -8 19 -10 42 -1 23 -6 45 -10
48 -4 3 -9 14 -10 25 -2 11 -8 23 -14 26 -5 3 -8 8 -7 10 6 8 -26 67 -33 63
-4 -3 -8 2 -8 10 0 9 -4 16 -10 16 -14 0 -12 39 3 55 30 34 37 45 31 45 -4 0
2 9 14 21 12 11 19 26 16 32 -4 7 -4 9 1 5 7 -6 30 23 107 136 7 10 19 25 26
32 7 8 10 14 5 14 -4 0 -3 4 3 8 5 4 26 30 45 57 18 28 37 52 42 53 4 2 7 10
7 17 0 8 8 20 19 27 10 7 19 18 21 23 5 22 42 59 48 50 4 -6 14 -11 22 -11 29
-3 72 -13 78 -18 2 -3 13 -1 23 5 13 7 19 6 19 -1 0 -8 6 -8 20 0 15 8 20 8
20 -2 0 -10 2 -10 8 -1 5 7 20 14 35 15 15 1 27 6 27 10 0 4 3 7 8 6 4 -1 17
3 28 10 12 6 25 8 29 4 5 -4 5 -1 1 6 -4 6 -2 12 3 12 10 0 51 31 75 57 31 34
69 93 60 93 -4 0 -1 7 6 15 6 8 8 20 4 26 -4 7 -3 9 4 5 6 -4 11 1 11 11 0 40
7 68 16 75 6 5 6 8 -1 8 -7 0 -10 14 -7 35 2 24 -1 35 -9 35 -9 0 -8 3 2 10
10 6 11 10 2 10 -6 0 -11 3 -10 8 4 15 -14 72 -23 72 -5 0 -9 9 -9 21 0 11 -4
17 -10 14 -5 -3 -10 3 -10 14 0 12 -4 21 -10 21 -5 0 -24 15 -42 34 -31 32
-102 75 -130 80 -7 1 -17 4 -23 8 -15 9 -175 8 -175 -2z m129 -153 c12 -10 13
-9 6 2 -9 16 7 8 39 -18 11 -9 16 -10 12 -3 -13 22 6 12 38 -20 50 -50 68 -91
68 -153 0 -50 -6 -85 -15 -85 -4 0 -6 -4 -3 -9 9 -14 -97 -115 -108 -104 -3 4
-6 2 -6 -3 0 -12 -110 -12 -127 -1 -8 5 -13 3 -14 -5 0 -10 -2 -10 -6 0 -2 6
-11 12 -19 12 -8 0 -14 5 -14 10 0 6 -5 10 -11 10 -13 0 -65 61 -62 72 2 4 -2
8 -8 8 -5 0 -7 5 -4 10 3 6 1 10 -6 10 -7 0 -10 2 -7 6 3 3 2 21 -2 40 -4 18
-5 34 -1 34 3 0 7 17 7 37 1 21 7 39 13 41 6 2 11 10 11 17 0 8 8 19 18 24 9
6 13 11 9 11 -4 0 -2 6 5 14 7 8 16 12 21 9 4 -2 7 0 7 5 0 12 49 34 61 27 5
-4 9 -2 9 3 0 14 72 13 89 -1z m-2010 -432 c10 -5 12 -4 7 4 -6 8 -1 8 18 0
14 -7 23 -16 19 -22 -3 -6 -1 -7 6 -3 12 8 44 -18 34 -28 -4 -3 1 -6 11 -6 9
0 14 -5 11 -10 -4 -6 -2 -17 4 -24 11 -13 11 -76 1 -86 -3 -3 -11 -18 -18 -33
-7 -15 -16 -26 -21 -23 -5 3 -12 -1 -15 -10 -4 -9 -9 -14 -12 -11 -4 3 -14 -1
-22 -10 -11 -10 -17 -12 -20 -4 -2 6 -9 8 -15 4 -18 -11 -36 -12 -43 -2 -3 5
-14 9 -25 9 -13 0 -18 4 -13 12 5 8 2 9 -10 5 -10 -4 -15 -3 -11 3 3 6 3 10
-2 10 -34 0 -53 140 -21 164 8 6 17 20 21 30 4 10 10 16 13 13 4 -3 13 1 21 9
8 8 19 12 24 9 5 -4 9 -2 9 3 0 11 30 9 49 -3z m1154 -658 c-3 -5 3 -7 13 -6
11 1 35 -4 54 -13 43 -18 140 -110 140 -132 0 -9 4 -16 9 -16 9 0 26 -48 22
-64 -1 -4 4 -14 10 -22 9 -11 8 -14 -2 -14 -9 0 -10 -3 -4 -8 13 -9 15 -42 3
-42 -6 0 -6 -6 1 -14 7 -9 8 -17 2 -20 -5 -3 -8 -17 -7 -31 2 -13 -1 -22 -5
-19 -5 3 -9 -4 -9 -15 0 -12 -5 -21 -10 -21 -6 0 -9 -3 -8 -7 4 -13 -35 -72
-44 -67 -4 3 -8 0 -8 -6 0 -13 -39 -49 -53 -50 -5 0 -15 -7 -24 -15 -8 -8 -19
-13 -24 -10 -5 4 -9 1 -9 -5 0 -7 -6 -10 -14 -7 -7 3 -17 2 -22 -3 -8 -8 -98
-15 -116 -10 -5 2 -12 4 -18 5 -5 1 -13 4 -17 5 -5 1 -12 2 -16 1 -11 -2 -70
31 -79 44 -4 6 -8 6 -8 2 0 -15 -89 82 -92 100 -2 10 -11 27 -20 37 -10 10
-15 23 -12 28 3 4 2 13 -2 20 -10 16 -11 118 -1 118 5 0 5 5 2 10 -8 12 16 80
28 80 4 0 6 4 3 8 -6 11 59 93 68 85 3 -3 6 -1 6 5 0 17 116 76 131 66 5 -3 9
-1 9 3 0 4 29 8 64 8 35 0 62 -4 59 -8z m973 -340 c8 3 14 0 14 -6 0 -6 4 -10
9 -8 17 4 71 -37 71 -55 0 -9 5 -20 11 -23 9 -6 9 -23 -3 -112 -1 -7 -5 -10
-10 -7 -4 3 -8 -2 -8 -11 0 -9 -4 -13 -10 -10 -5 3 -10 2 -10 -4 0 -6 -10 -15
-22 -22 -26 -14 -118 -20 -118 -8 0 5 -5 9 -10 9 -17 0 -65 53 -62 67 2 7 -1
13 -6 13 -8 0 -9 65 -2 80 1 3 2 8 2 11 -1 4 11 20 26 37 30 33 92 64 106 51
5 -4 15 -5 22 -2z m-1835 -854 c28 1 109 -25 109 -34 0 -5 5 -9 11 -9 14 0 69
-61 69 -77 0 -7 4 -13 8 -13 5 0 9 -6 10 -12 3 -22 10 -63 12 -68 3 -6 3 -7
-5 -60 -4 -25 -11 -46 -16 -48 -5 -2 -9 -10 -9 -19 0 -17 -62 -83 -79 -83 -6
0 -11 -5 -11 -12 0 -6 -3 -8 -7 -5 -3 4 -12 2 -20 -4 -7 -6 -13 -8 -13 -4 0 4
-6 3 -12 -3 -16 -12 -118 -12 -118 1 0 4 -4 6 -9 2 -5 -3 -15 0 -23 7 -7 7
-20 14 -28 16 -8 2 -22 11 -31 22 -9 11 -19 16 -23 13 -3 -4 -6 1 -6 10 0 9
-4 17 -10 17 -5 0 -10 7 -10 15 0 8 -5 15 -12 15 -6 0 -9 3 -5 6 3 4 0 22 -8
40 -10 25 -11 34 -2 34 8 0 8 3 -1 9 -8 4 -14 12 -14 16 0 4 6 12 14 16 10 7
10 9 0 9 -8 0 -10 5 -5 13 4 6 8 15 9 20 1 4 2 8 4 10 1 1 3 11 5 21 2 10 10
23 17 27 7 5 9 9 4 9 -5 0 7 16 27 35 20 19 39 35 43 35 4 0 16 8 27 18 15 12
18 13 12 2 -8 -13 -6 -13 8 -2 9 8 20 11 26 8 5 -3 12 1 15 10 4 11 10 13 19
6 6 -5 19 -9 28 -9z m1624 -160 c52 -5 55 -6 55 -15 0 -4 5 -8 10 -8 15 0 60
-47 53 -54 -4 -3 -1 -6 6 -6 7 0 10 -4 7 -9 -4 -5 -2 -11 4 -13 12 -4 16 -100
4 -119 -4 -8 -9 -19 -10 -26 -3 -16 -56 -69 -66 -66 -4 2 -8 -2 -8 -7 0 -5 -3
-9 -7 -9 -21 3 -33 -2 -27 -13 4 -6 3 -9 -2 -5 -5 3 -29 6 -54 8 -53 3 -73 13
-119 58 -38 36 -45 54 -43 121 2 61 4 70 15 70 6 0 8 3 5 6 -18 17 113 108
137 95 5 -3 23 -6 40 -8z"/>
</g>
</svg>
